<svg width="864" height="381" viewBox="0 0 864 381" fill="none" xmlns="http://www.w3.org/2000/svg">
<g filter="url(#filter0_d)">
<path d="M310.852 84.4095C334.537 95.0294 345.129 122.839 334.509 146.525L237 364L48.4437 279.457C25.2621 269.063 14.8957 241.845 25.2896 218.663L123.208 0.275577L310.852 84.4095Z" fill="#2D5D83"/>
</g>
<path d="M108.256 228.735V238H65.4211V228.735L76.3258 226.454C77.3712 226.264 78.1789 225.836 78.7491 225.171C79.3668 224.506 79.7469 223.603 79.8895 222.463L89.5113 142.922C89.6538 141.734 89.44 140.76 88.8698 140C88.3471 139.192 87.4919 138.693 86.304 138.503L73.9025 136.294V126.672H121.228L143.037 204.074L162.495 126.672H210.033V136.294L197.062 138.503C195.874 138.693 195.019 139.192 194.496 140C193.973 140.76 193.807 141.734 193.997 142.922L206.113 222.534C206.256 223.579 206.636 224.458 207.254 225.171C207.872 225.836 208.703 226.264 209.748 226.454L220.368 228.735V238H170.121V228.735L183.092 226.525L171.119 142.637L148.097 233.795H129.78L102.412 143.136L93.0036 226.525L108.256 228.735ZM238.942 274.919C235.901 274.919 232.741 274.729 229.463 274.349C226.184 274.016 223.12 273.613 220.269 273.137V262.09C225.781 261.377 230.722 260.522 235.093 259.524C239.465 258.574 243.337 257.244 246.711 255.533C250.132 253.823 253.173 251.566 255.834 248.762C258.495 245.959 260.894 242.371 263.032 238H253.553L228.037 171.431C227.657 170.386 227.111 169.578 226.398 169.008C225.685 168.438 224.806 167.986 223.761 167.654L218.202 165.943V156.892L262.676 156.963V166.157L251.629 168.367L269.589 220.182L286.053 168.367L275.434 166.086V156.892H307.435V165.943L301.876 167.654C300.736 167.986 299.833 168.438 299.168 169.008C298.55 169.531 298.051 170.362 297.671 171.503L273.795 239.853C269.661 251.684 264.885 260.475 259.469 266.224C254.1 272.021 247.257 274.919 238.942 274.919Z" fill="white"/>
<path d="M459.598 220.966L466.298 199.156L478.058 200.796C478.011 206.497 477.82 212.556 477.488 218.97C477.203 225.385 476.419 231.728 475.136 238H388.682V228.735L399.801 226.668C400.988 226.478 401.867 226.026 402.438 225.313C403.008 224.601 403.293 223.674 403.293 222.534V142.637C403.293 141.449 403.008 140.523 402.438 139.857C401.867 139.145 401.012 138.67 399.872 138.432L388.682 136.294V126.672H444.774V136.294L430.091 138.646C428.951 138.836 428.072 139.287 427.454 140C426.884 140.665 426.599 141.568 426.599 142.708V227.238H441.638C444.679 227.238 447.387 227.072 449.763 226.739C452.186 226.406 454.087 225.979 455.465 225.456C456.51 225.076 457.365 224.529 458.03 223.817C458.743 223.104 459.266 222.154 459.598 220.966ZM488.12 198.087C488.12 190.295 489.165 183.643 491.256 178.131C493.394 172.572 496.292 168.081 499.951 164.66C503.657 161.239 508.028 158.745 513.065 157.177C518.102 155.561 523.495 154.753 529.244 154.753C541.74 154.753 551.338 158.317 558.038 165.444C564.738 172.524 568.088 182.906 568.088 196.591C568.088 204.383 567.018 211.035 564.88 216.547C562.79 222.059 559.891 226.525 556.185 229.946C552.526 233.367 548.179 235.862 543.142 237.43C538.106 238.998 532.689 239.782 526.892 239.782C514.395 239.782 504.797 236.242 498.098 229.162C491.446 222.082 488.12 211.724 488.12 198.087ZM543.926 198.301C543.926 186.755 542.762 178.273 540.434 172.857C538.153 167.392 533.9 164.66 527.676 164.66C522.497 164.66 518.624 167.036 516.058 171.788C513.493 176.539 512.21 184.712 512.21 196.305C512.21 207.804 513.35 216.286 515.631 221.75C517.959 227.214 522.259 229.946 528.531 229.946C533.71 229.946 537.559 227.57 540.077 222.819C542.643 218.02 543.926 209.847 543.926 198.301ZM581 198.372C581 191.53 581.975 185.401 583.923 179.984C585.871 174.567 588.627 170.006 592.19 166.3C595.754 162.546 600.054 159.695 605.091 157.747C610.175 155.751 615.782 154.753 621.911 154.753C626.758 154.753 631.604 155.324 636.451 156.464C641.345 157.557 645.36 158.959 648.496 160.669C648.828 165.088 648.828 169.602 648.496 174.211C648.163 178.772 647.617 183.12 646.856 187.254H635.952L632.246 173.783C631.818 172.215 631.39 170.98 630.963 170.077C630.535 169.174 629.965 168.39 629.252 167.725C628.349 166.965 627.161 166.323 625.688 165.801C624.263 165.231 622.671 164.945 620.913 164.945C616.209 164.945 612.384 167.321 609.438 172.073C606.54 176.824 605.091 184.474 605.091 195.023C605.091 205.191 606.706 212.864 609.937 218.044C613.216 223.175 618.371 225.741 625.403 225.741C629.68 225.741 633.433 224.957 636.664 223.389C639.896 221.821 642.461 220.134 644.362 218.329L649.494 222.534C647.593 227.523 643.934 231.657 638.518 234.935C633.101 238.166 626.354 239.782 618.276 239.782C611.909 239.782 606.374 238.736 601.67 236.646C596.966 234.508 593.093 231.609 590.052 227.951C587.011 224.244 584.73 219.849 583.21 214.765C581.737 209.681 581 204.217 581 198.372ZM704.658 228.806V238H659.613V228.806L667.667 227.38C668.76 227.19 669.615 226.739 670.233 226.026C670.851 225.313 671.16 224.363 671.16 223.175V128.596C671.16 127.408 670.851 126.482 670.233 125.817C669.663 125.104 668.808 124.653 667.667 124.463L658.045 123.037V114.128C660.421 113.51 662.987 112.94 665.743 112.417C668.499 111.847 671.278 111.372 674.082 110.992C676.933 110.612 679.736 110.327 682.492 110.137C685.295 109.899 687.909 109.78 690.332 109.78L693.325 112.56V198.301L721.621 168.081L708.15 165.729V156.963H749.488V165.729L741.078 167.725C739.32 168.153 737.966 168.557 737.016 168.937C736.065 169.269 735.067 169.958 734.022 171.004L719.055 185.971C720.67 187.872 722.143 189.915 723.474 192.1C724.852 194.286 726.301 196.852 727.821 199.798L740.294 222.676C741.007 223.959 741.72 224.886 742.432 225.456C743.192 225.979 744.167 226.406 745.354 226.739L753.48 228.806V238H726.61C724.281 238 722.333 236.693 720.765 234.08C719.245 231.419 717.606 228.259 715.848 224.601L708.934 209.99C708.174 208.374 707.39 206.806 706.582 205.286C705.774 203.718 704.967 202.245 704.159 200.867L693.325 211.7V223.247C693.325 224.434 693.634 225.385 694.252 226.097C694.87 226.763 695.725 227.19 696.818 227.38L704.658 228.806Z" fill="#2D5D83"/>
<defs>
<filter id="filter0_d" x="0.469727" y="0.275574" width="363.269" height="380.724" filterUnits="userSpaceOnUse" color-interpolation-filters="sRGB">
<feFlood flood-opacity="0" result="BackgroundImageFix"/>
<feColorMatrix in="SourceAlpha" type="matrix" values="0 0 0 0 0 0 0 0 0 0 0 0 0 0 0 0 0 0 127 0" result="hardAlpha"/>
<feOffset dx="2" dy="9"/>
<feGaussianBlur stdDeviation="4"/>
<feColorMatrix type="matrix" values="0 0 0 0 0 0 0 0 0 0 0 0 0 0 0 0 0 0 0.29 0"/>
<feBlend mode="normal" in2="BackgroundImageFix" result="effect1_dropShadow"/>
<feBlend mode="normal" in="SourceGraphic" in2="effect1_dropShadow" result="shape"/>
</filter>
</defs>
</svg>
